<svg data-v-423bf9ae="" xmlns="http://www.w3.org/2000/svg" viewBox="0 0 279.236063896907 60" class="font"><!----><!----><!----><g data-v-423bf9ae="" id="d385d2af-befc-4d8b-99b3-0dd6daecf8e1" fill="black" transform="matrix(4.5836515890443295,0,0,4.5836515890443295,-2.9335398766809817,-0.9625659480762856)"><path d="M0.64 5.46C0.64 8.41 2.37 10.71 5.45 10.71C8.51 10.71 10.23 8.41 10.23 5.46C10.23 2.52 8.51 0.21 5.45 0.21C2.37 0.21 0.64 2.52 0.64 5.46ZM2.37 5.46C2.37 3.22 3.54 1.62 5.45 1.62C7.34 1.62 8.53 3.22 8.53 5.46C8.53 7.70 7.34 9.30 5.45 9.30C3.46 9.30 2.37 7.70 2.37 5.46ZM13.30 13.30L13.30 9.79C13.72 10.39 14.38 10.71 15.15 10.71C17.07 10.71 18.30 9.23 18.30 6.86C18.30 4.49 17.09 3.01 15.18 3.01C14.25 3.01 13.58 3.47 13.16 4.17L13.16 3.22L11.75 3.22L11.75 13.30ZM13.15 6.86C13.15 5.17 14.06 4.31 14.98 4.31C15.99 4.31 16.74 5.17 16.74 6.86C16.74 8.57 16.00 9.42 14.97 9.42C13.93 9.42 13.15 8.57 13.15 6.86ZM25.96 7.28C25.97 7.21 25.97 6.85 25.97 6.66C25.97 4.44 24.67 3.01 22.60 3.01C20.64 3.01 19.17 4.35 19.17 6.86C19.17 9.37 20.64 10.71 22.60 10.71C24.25 10.71 25.41 9.93 25.87 8.37L24.40 8.06C24.19 8.93 23.49 9.42 22.69 9.42C21.69 9.42 20.82 8.76 20.72 7.28ZM22.58 4.31C23.63 4.31 24.30 5.05 24.36 6.13L20.76 6.13C20.94 4.89 21.77 4.31 22.58 4.31ZM28.83 10.50L28.83 6.54C28.83 5.10 29.55 4.33 30.55 4.33C31.54 4.33 31.92 4.98 31.92 6.09L31.92 10.50L33.47 10.50L33.47 6.03C33.47 4.30 32.93 3.01 30.91 3.01C29.96 3.01 29.23 3.37 28.70 4.27L28.70 3.22L27.27 3.22L27.27 10.50ZM36.32 6.86C36.32 5.10 37.13 4.31 38.15 4.31C38.93 4.31 39.55 4.75 39.77 5.81L41.29 5.52C40.89 3.85 39.72 3.01 38.15 3.01C36.18 3.01 34.76 4.35 34.76 6.86C34.76 9.37 36.18 10.71 38.15 10.71C39.72 10.71 40.89 9.88 41.29 8.22L39.77 7.92C39.55 8.97 38.93 9.42 38.15 9.42C37.11 9.42 36.32 8.62 36.32 6.86ZM44.14 10.50L44.14 6.54C44.14 5.10 44.87 4.33 45.86 4.33C46.86 4.33 47.24 4.98 47.24 6.09L47.24 10.50L48.79 10.50L48.79 6.03C48.79 4.30 48.24 3.01 46.23 3.01C45.28 3.01 44.59 3.39 44.14 4.19L44.14 0.42L42.59 0.42L42.59 10.50ZM54.89 9.66C54.92 9.97 54.98 10.30 55.19 10.50L56.76 10.50C56.50 10.23 56.36 9.76 56.36 9.02L56.36 5.92C56.36 3.95 55.34 3.01 53.42 3.01C52.04 3.01 50.69 3.53 50.33 5.21L51.73 5.59C51.94 4.79 52.43 4.27 53.31 4.27C54.25 4.27 54.81 4.75 54.81 5.64L54.81 5.88C54.45 6.05 53.73 6.17 52.96 6.24C51.30 6.43 50.11 7.04 50.11 8.61C50.11 10.04 51.24 10.71 52.57 10.71C53.44 10.71 54.21 10.43 54.89 9.66ZM54.81 8.41C54.47 8.90 53.70 9.51 52.86 9.51C52.22 9.51 51.70 9.24 51.70 8.53C51.69 7.67 52.43 7.48 53.16 7.35C53.86 7.24 54.50 7.08 54.81 6.96ZM61.42 9.20C61.19 9.27 60.98 9.28 60.84 9.28C60.19 9.28 60.19 8.83 60.19 8.20L60.19 4.44L61.47 4.44L61.47 3.22L60.19 3.22L60.19 0.85L58.63 1.46L58.63 3.22L57.60 3.22L57.60 4.44L58.63 4.44L58.63 8.37C58.63 9.80 58.95 10.64 60.48 10.64C60.75 10.64 61.28 10.57 61.56 10.47Z"></path></g><!----><!----></svg>